<!-- Generated by IcoMoon.io -->
<svg version="1.1" xmlns="http://www.w3.org/2000/svg" width="640" height="640" viewBox="0 0 640 640">
<title></title>
<g id="icomoon-ignore">
</g>
<path d="M608 96h-576c-17.696 0-32 14.304-32 32v384c0 17.664 14.304 32 32 32h576c17.696 0 32-14.336 32-32v-384c0-17.664-14.304-32-32-32zM416 224h128v32h-128v-32zM352 473.696c-4.128-3.264-9.376-6.432-16.928-9.696-37.76-16.256-94.752-40.32-94.752-69.632 0-17.632 11.488-11.872 16.576-44.128 2.112-13.376 12.32-0.224 14.24-30.752 0-12.16-5.568-15.2-5.568-15.2s2.816-17.984 3.936-31.872c1.152-14.496-7.072-57.6-40.864-67.104-5.952-6.016-9.952-3.552 8.256-13.184-39.808-1.888-49.088 18.944-70.272 34.272-18.048 13.44-22.944 34.72-22.048 46.048 1.184 13.856 4 31.872 4 31.872s-5.6 3.008-5.6 15.168c1.952 30.528 12.16 17.376 14.24 30.752 5.056 32.256 16.608 26.496 16.608 44.128 0 29.312-56.992 53.376-94.752 69.632-6.496 2.816-11.168 5.536-15.072 8.32v-312.32h288v313.696zM576 352h-160v-32h160v32z"></path>
</svg>
