<!-- Generated by IcoMoon.io -->
<svg version="1.1" xmlns="http://www.w3.org/2000/svg" width="640" height="640" viewBox="0 0 640 640">
<title></title>
<g id="icomoon-ignore">
</g>
<path d="M168.768 221.28c6.4 0 12.608 0.928 18.432 2.752 22.080-24.736 46.56-47.264 73.056-67.2-1.12-4.672-1.728-9.568-1.728-14.56 0-6.944 1.152-13.632 3.264-19.872-29.728-21.248-61.984-39.136-96.352-52.928-32.16 19.872-60.224 45.792-82.624 76.192 16.608 29.44 36.352 56.864 58.816 81.824 8.192-3.968 17.376-6.208 27.136-6.208zM106.112 283.904c0-8.8 1.856-17.184 5.088-24.736-20.096-22.144-38.304-45.952-54.24-71.328-20 39.744-31.36 84.64-31.36 132.192 0 55.008 15.168 106.496 41.44 150.56 9.408-52.928 27.232-103.008 51.84-148.864-8-10.496-12.768-23.648-12.768-37.824zM321.152 79.648c16.544 0 31.52 6.432 42.752 16.928 32.672-14.048 67.072-24.864 102.88-31.744-43.232-24.928-93.344-39.232-146.784-39.232-36.448 0-71.328 6.688-103.552 18.816 25.568 12.64 49.952 27.36 72.864 44 9.344-5.568 20.192-8.768 31.84-8.768zM414.784 374.656c3.904-8.128 9.44-15.328 16.288-20.992-18.496-56.864-47.776-108.928-85.504-153.696-7.488 3.2-15.744 4.928-24.448 4.928-13.6 0-26.112-4.384-36.384-11.68-22.72 17.248-43.744 36.576-62.848 57.696 6.016 9.568 9.504 20.864 9.504 32.992 0 6.496-0.992 12.8-2.88 18.752 54.944 36.672 118.208 61.888 186.272 72zM496.032 459.232c0.832 11.872 1.312 23.808 1.312 35.872 0 21.248-1.344 42.176-3.904 62.752 49.92-36.448 87.936-88.256 107.104-148.448-22.72 5.504-46.016 9.44-69.792 11.68-5.536 17.184-18.304 31.008-34.72 38.144zM400.128 416.768c-72.704-12.064-140.064-39.808-198.72-79.488-9.536 5.824-20.704 9.248-32.672 9.248-4.448 0-8.704-0.448-12.864-1.312-28.064 53.184-46.016 112.544-51.168 175.488 28.032 30.080 62.208 54.304 100.64 70.56 47.744-73.376 114.432-134.048 194.784-174.496zM517.632 101.792c-47.2 4.576-92.256 16.448-134.176 34.176 0.192 2.112 0.32 4.192 0.32 6.304 0 9.888-2.368 19.2-6.432 27.488 41.952 49.248 74.464 106.56 95.008 169.312 25.504 0.512 47.264 16.064 56.64 38.24 28.352-2.88 55.936-8.32 82.496-16.128 1.92-13.44 2.944-27.2 2.944-41.184-0.032-86.528-37.344-164.352-96.8-218.208zM431.648 450.208c-75.008 35.136-137.728 89.248-183.136 155.392 22.88 5.728 46.816 8.8 71.488 8.8 44.384 0 86.464-9.888 124.224-27.488 6.080-29.696 9.28-60.384 9.28-91.808 0-11.36-0.512-22.624-1.376-33.76-7.552-2.432-14.496-6.176-20.48-11.136z"></path>
</svg>
